HIERARCHY
ROOT Root
{
  OFFSET 5.99197 12.1404 34.5829
  CHANNELS 6 Xposition Yposition Zposition Zrotation Xrotation Yrotation
  JOINT Spine
  {
    OFFSET 5.3114 0 0
    CHANNELS 3 Zrotation Xrotation Yrotation
    JOINT Spine1
    {
      OFFSET 2.79004 0 0
      CHANNELS 3 Zrotation Xrotation Yrotation
      JOINT Neck
      {
        OFFSET 1.43377 0 0
        CHANNELS 3 Zrotation Xrotation Yrotation
        JOINT Head
        {
          OFFSET 1.86043 0 0
          CHANNELS 3 Zrotation Xrotation Yrotation
          End Site
          {
            OFFSET 0 0 0
          }
        }
      }
      JOINT LeftArm
      {
        OFFSET 0.0387506 0 2.55754
        CHANNELS 3 Zrotation Xrotation Yrotation
        JOINT LeftForeArm
        {
          OFFSET 4.24845 0 0
          CHANNELS 3 Zrotation Xrotation Yrotation
          JOINT LeftHand
          {
            OFFSET 4.01008 0 0
            CHANNELS 3 Zrotation Xrotation Yrotation
            End Site
            {
              OFFSET 0 0 0
            }
          }
        }
      }
      JOINT RightArm
      {
        OFFSET 0.0387506 0 -2.55754
        CHANNELS 3 Zrotation Xrotation Yrotation
        JOINT RightForeArm
        {
          OFFSET -4.24845 0 0
          CHANNELS 3 Zrotation Xrotation Yrotation
          JOINT RightHand
          {
            OFFSET -4.01009 0 0
            CHANNELS 3 Zrotation Xrotation Yrotation
            End Site
            {
              OFFSET 0 0 0
            }
          }
        }
      }
    }
  }
  JOINT LeftUpLeg
  {
    OFFSET -1.23318 0 2.05692
    CHANNELS 3 Zrotation Xrotation Yrotation
    JOINT LeftLeg
    {
      OFFSET 5.46397 0 0
      CHANNELS 3 Zrotation Xrotation Yrotation
      JOINT LeftFoot
      {
        OFFSET 4.68898 0 0
        CHANNELS 3 Zrotation Xrotation Yrotation
        End Site
        {
          OFFSET 0 0 0
        }
      }
    }
  }
  JOINT RightUpLeg
  {
    OFFSET -1.24454 0 -2.05007
    CHANNELS 3 Zrotation Xrotation Yrotation
    JOINT RightLeg
    {
      OFFSET -5.46397 0 0
      CHANNELS 3 Zrotation Xrotation Yrotation
      JOINT RightFoot
      {
        OFFSET -4.68901 0 0
        CHANNELS 3 Zrotation Xrotation Yrotation
        End Site
        {
          OFFSET 0 0 0
        }
      }
    }
  }
}
MOTION
Frames:	10
Frame Time:	0.0416667
20.772 12.4888 17.6906 -68.8548 -72.6911 -160.432 -5.92502 -0.612273 0.490007 -7.52028 0.0874904 -0.131357 -16.3757 -0.609207 -4.75642 30.0122 0.601394 6.95278 -27.29 -40.2781 -141.878 21.79 0.513088 12.6652 3.82123 37.3105 173.166 158.204 -51.1464 -129.805 21.1501 0.42908 12.2982 2.63477 27.6746 173.799 16.7932 -8.16655 -175.894 -36.7907 -0.687616 -1.37159 -12.0079 6.94225 178.913 168.435 -17.9216 177.266 -23.865 -0.864376 -0.91787 27.4488 -27.8372 -172.407 
21.0457 12.5447 17.3402 -65.1193 -73.7699 -156.886 -4.23976 -0.684191 1.54 -7.98973 0.0115592 0.381421 -16.9803 -0.563507 -5.15123 30.417 0.891944 8.09126 -25.8948 -42.3941 -140.27 21.8357 0.519124 12.6919 3.66876 36.1808 173.256 158.923 -51.187 -129.104 21.1793 0.432838 12.3149 2.61856 27.5268 173.809 11.7705 -6.23965 -174.73 -46.8443 -0.70238 -1.67254 -17.5476 5.46905 179.108 171.192 -16.3379 176.787 -23.8531 -0.817128 -0.909481 26.4743 -27.7166 -173.163 
21.3041 12.5968 16.9779 -63.265 -74.3857 -155.076 -3.44156 -0.137638 2.95932 -8.44588 0.168117 0.524763 -16.7703 -0.558602 -5.04595 31.0434 1.0419 7.85709 -23.277 -44.0697 -137.127 22.6561 0.633718 13.1621 3.30751 33.403 173.462 160.727 -51.8221 -127.832 21.4716 0.470788 12.4828 2.55481 26.9928 173.84 6.8389 -3.53501 -173.958 -56.1235 -0.779773 -1.97899 -12.219 3.7661 178.228 174.233 -19.3965 175.229 -22.2799 -0.860912 -0.901397 28.8546 -31.0944 -170.551 
21.4986 12.64 16.6152 -62.33 -74.8321 -155.2 -3.14127 0.281525 6.6023 -8.42979 0.367597 0.269165 -16.4002 0.0302544 -5.32194 31.4001 2.30739 7.76102 -23.3476 -43.566 -136.364 22.822 0.657343 13.2562 3.21357 32.6494 173.513 160.595 -52.0881 -127.672 21.2475 0.441675 12.3541 2.59583 27.3698 173.823 1.60932 -1.42787 -172.618 -63.9489 -0.875459 -2.24089 -1.14448 2.52357 177.443 178.291 -22.074 173.662 -17.3578 -0.805179 -0.885639 31.0075 -33.1284 -167.938 
21.6494 12.6492 16.2784 -61.9825 -75.415 -154.977 -2.42068 1.21769 8.91041 -8.83212 0.710973 -0.380042 -16.7421 -0.104533 -4.3855 31.9662 2.35066 7.55589 -23.0234 -43.5389 -135.32 23.1863 0.712321 13.4645 3.26583 33.0703 173.485 161.076 -51.886 -127.154 21.5736 0.485891 12.5405 2.43474 25.8994 173.895 -3.86988 -0.435387 -173.254 -67.5142 -0.968415 -2.36331 6.48773 0.11495 177.289 -179.865 -24.0214 172.767 -16.6683 -0.923239 -0.900199 35.354 -32.9502 -164.564 
21.7838 12.6295 15.9348 -60.9304 -76.2633 -153.164 -2.01482 1.45841 9.67867 -8.33566 0.761527 -0.291876 -17.0998 -0.0258651 -4.01117 31.6606 2.70282 8.07384 -23.627 -43.3627 -134.448 22.716 0.643422 13.1958 3.33421 33.615 173.447 162.142 -52.738 -125.775 21.9123 0.529581 12.7355 2.1936 23.6293 173.996 -8.67712 -0.0466194 -175.678 -66.1702 -1.1185 -2.31108 12.4279 -2.50132 177.8 -179.616 -25.0154 172.118 -20.2806 -1.23107 -0.954492 42.0637 -30.5933 -160.638 
21.8999 12.5687 15.5841 -59.5836 -77.6378 -151.165 -1.9978 1.67224 10.2591 -8.29915 0.851449 -0.50791 -16.5445 -0.187039 -3.75194 31.2339 2.55373 8.27116 -25.8699 -42.8493 -135.404 22.011 0.543217 12.7925 3.50715 34.9617 173.35 159.014 -51.6615 -128.529 21.4605 0.469413 12.4765 2.45755 26.1102 173.885 -13.487 -0.591065 -178.356 -61.6866 -1.25304 -2.14805 16.312 -4.68098 178.621 -179.479 -25.6288 171.323 -23.3423 -1.43255 -1.02709 45.7516 -30.0967 -158.038 
22.0011 12.5311 15.2144 -58.7623 -78.9042 -150.396 -2.07943 1.87726 11.4375 -8.60575 0.951103 -0.176566 -16.1632 -0.165163 -3.84917 31.5652 2.56557 7.78743 -24.8706 -42.9263 -134.825 22.5465 0.617952 13.0994 3.37377 33.9703 173.427 157.234 -50.8487 -130.193 20.9342 0.401481 12.1739 2.65328 27.8843 173.796 -17.7455 -1.30441 179.799 -55.1315 -1.33667 -1.92072 19.1715 -6.39777 179.553 -178.25 -25.6473 170.487 -23.3873 -1.50077 -1.04577 48.1098 -29.6816 -156.212 
22.1049 12.5074 14.8318 -57.0926 -80.0919 -148.45 -1.83672 2.23677 11.5247 -8.6832 1.05173 -0.227029 -16.6541 -0.193502 -3.71633 32.3734 2.66315 7.7832 -24.7015 -42.9951 -134.371 22.7426 0.645852 13.2106 3.32981 33.5864 173.451 154.978 -49.9994 -132.292 20.5728 0.358036 11.966 2.83486 29.4795 173.709 -20.3585 -1.52265 177.869 -46.4797 -1.35523 -1.64778 21.064 -9.02958 -179.077 -175.662 -24.5372 170.582 -22.005 -1.46376 -1.01875 48.0729 -30.5746 -155.555 
22.1941 12.4847 14.4347 -53.4637 -81.5084 -145.159 -1.81575 2.40411 11.8723 -9.12114 1.14119 -0.431105 -16.2633 -0.29916 -3.59475 32.7004 2.65792 7.76939 -23.4975 -43.4556 -133.557 22.8546 0.661988 13.2745 3.25011 32.9706 173.492 152.309 -48.687 -135.257 20.0255 0.291423 11.6511 3.05322 31.33 173.598 -22.6969 -2.48838 176.698 -38.2392 -1.28875 -1.41039 21.7703 -11.3774 -177.834 -171.441 -23.263 170.754 -17.1882 -1.24673 -0.956352 46.2788 -31.9371 -155.777 
